<svg xmlns="http://www.w3.org/2000/svg" width="249.8" height="250" viewBox="0 0 249.8 250"><style type="text/css">.st0{fill:#242424;} .st1{fill:#FFFFFF;}</style><circle class="st0" cx="124.7" cy="125" r="125.1"/><path class="st1" d="M42.7 81c-13 0-14.4-20.7 0-20.7h164.3c15.9 0 15.1 20.7 0 20.7h-164.3zm4.6 6.1h7.9v78.5c0 3.8 2.8 5.8 5.8 5.8h126.8s7.9-1.1 7.9-5.8v-78.5h8.5v78.9s-7.9 14-12.8 14h-130.4s-13.7-5-13.7-14.2v-78.7zm71.1-31.3v-5.9c0-8.7 14.4-9.3 14.4 0v5.9h-14.4zm-2.6 130.1l-24.9 24.9c-5.3 5.3 1.4 10.6 6 6l24.5-24.5v21.5c0 7.8 8.4 8 8.4 0v-21.7s18.8 19.1 24.9 25.1c5.2 4.9 10.4-.6 5.7-5.7-2.5-2.5-25.1-25.6-25.1-25.6h-19.5z"/></svg>