<svg xmlns="http://www.w3.org/2000/svg" width="199.8" height="86.9" viewBox="0 0 199.8 86.9"><style type="text/css">.st0{fill:#403A1A;} .st1{fill:#EFA854;}</style><path class="st0" d="M130.9-.1h6.7-6.7z"/><path class="st1" d="M193.6 79.4c-1.6-2.8-1-9.3-1-13.2 0-4.6.8-9.6-.6-14-1.3-4.2-4.8-6.6-8.5-8.2.8.4 4.2-3 4.9-3.6 1.5-1.5 2.8-3.1 3.9-5 4.8-8.6 4.2-19.6-2.1-27.2-5.8-7-14.9-8-24-8.1-5.6-.1-11.2 0-16 0h-106.80000000000001c-24-.5-43.4 19.2-43.4 43.2 0 24 19.4 43.5 43.4 43.5s42.2-19.5 43.4-43.5c.4-8.2-2.2-19.1-9.5-24.1-5.8-3.9-12.8-6.4-19.7-6.8 11.6 5.4 19.7 17.2 19.7 30.9 0 18.8-15.2 34-34 34-18.7 0-33.9-15.2-33.9-34s15.2-32.8 33.9-32.8h19.7l6.2-.1h27.2v76.6h11.9v-76.6h22.5v76.4h11.5v-37.3h26.8c3.5 0 9.5 2.3 11.4 5.6.9 1.5 1.1 3.4 1.1 5.2 0 3.8-.1 7.7.3 11.5.3 3.8 1 8.6 3.5 11.5 2 2.3 4.3 3.1 6.5 3.3 3.5.2 6.6.1 7.9.1-2.3-2.1-4.5-4.5-6.2-7.3zm-23.8-39.7h-27.3v-29.3h27.6c1.1 0 12.4 0 13.6 12.1-.2 16.9-12.8 17.2-13.9 17.2z"/><path class="st0" d="M52.2 10.3"/></svg>