<?xml version="1.0" encoding="utf-8"?>
<!-- Generator: Adobe Illustrator 19.1.0, SVG Export Plug-In . SVG Version: 6.00 Build 0)  -->
<!DOCTYPE svg PUBLIC "-//W3C//DTD SVG 1.1//EN" "http://www.w3.org/Graphics/SVG/1.1/DTD/svg11.dtd">
<svg version="1.1" id="Layer_1" xmlns="http://www.w3.org/2000/svg" xmlns:xlink="http://www.w3.org/1999/xlink" x="0px" y="0px"
	 width="199.8px" height="86.9px" viewBox="0 0 199.8 86.9" style="enable-background:new 0 0 199.8 86.9;" xml:space="preserve">
<style type="text/css">
	.st0{fill:#403A1A;}
	.st1{fill:#EFA854;}
</style>
<g>
	<path class="st0" d="M130.9-0.1l6.7,0v0H130.9z"/>
</g>
<path class="st1" d="M193.6,79.4c-1.6-2.8-1-9.3-1-13.2c0-4.6,0.8-9.6-0.6-14c-1.3-4.2-4.8-6.6-8.5-8.2c0.8,0.4,4.2-3,4.9-3.6
	c1.5-1.5,2.8-3.1,3.9-5c4.8-8.6,4.2-19.6-2.1-27.2c-5.8-7-14.9-8-24-8.1c-5.6-0.1-11.2,0-16,0l-12.5,0l-6.7,0H67.3v0H46.4l0,0
	c-1,0-1.9,0-3,0C19.4-0.4,0,19.3,0,43.3c0,24,19.4,43.5,43.4,43.5c24,0,42.2-19.5,43.4-43.5c0.4-8.2-2.2-19.1-9.5-24.1
	c-5.8-3.9-12.8-6.4-19.7-6.8c0,0,0,0,0,0c11.6,5.4,19.7,17.2,19.7,30.9c0,18.8-15.2,34-34,34c-18.7,0-33.9-15.2-33.9-34
	c0-18.8,15.2-32.8,33.9-32.8c3.2,0,9.6,0,9.6,0h10.1l6.2-0.1h27.2v76.6h11.9V10.4h22.5v76.4h11.5V49.5c0,0,26.8,0,26.8,0
	c3.5,0,9.5,2.3,11.4,5.6c0.9,1.5,1.1,3.4,1.1,5.2c0,3.8-0.1,7.7,0.3,11.5c0.3,3.8,1,8.6,3.5,11.5c2,2.3,4.3,3.1,6.5,3.3
	c3.5,0.2,6.6,0.1,7.9,0.1C197.5,84.6,195.3,82.2,193.6,79.4z M169.8,39.7C169.7,39.7,169.7,39.7,169.8,39.7h-27.3V10.4H170
	c0,0,0.1,0,0.1,0c1.1,0,12.4,0,13.6,12.1C183.5,39.4,170.9,39.7,169.8,39.7z"/>
<path class="st0" d="M52.2,10.3"/>
<g>
</g>
<g>
</g>
<g>
</g>
<g>
</g>
<g>
</g>
<g>
</g>
</svg>
