<svg xmlns="http://www.w3.org/2000/svg" width="249.8" height="250" viewBox="0 0 249.8 250"><style type="text/css">.st0{fill:#242424;} .st1{fill:#FFFFFF;} .st2{fill:none;stroke:#242424;stroke-width:2.88;stroke-linecap:round;stroke-miterlimit:10;} .st3{fill:none;}</style><circle class="st0" cx="124.7" cy="125" r="125.1"/><path class="st1" d="M125.9 158.3v-64.8s1.8-7.1 7-7.1h84.3c6.5 0 7.2 2.2 7.2 7.2v64.7h-98.5zm-81.1.7h-18.1c-2.3 0-4.1-1.9-4.1-4.1v-41.1c0-2.3 1.9-4.1 4.1-4.1h18.1c2.3 0 4.1 1.9 4.1 4.1v41.1c0 2.2-1.9 4.1-4.1 4.1zm-5.4-52.1h-7.1v-36.7c0-5.1 5.1-5.1 5.1-5.1h102.4s5.4-.5 5.4 6.3v12.6h-7.1v-8.7c0-2.3-2.5-2.5-2.5-2.5h-93.1s-2.7-.2-2.7 3.2c0 3.3-.4 30.9-.4 30.9zm12.7 19.5h70.9v13.8h-70.9z"/><circle class="st0" cx="88.7" cy="132.8" r="3.1"/><circle class="st0" cx="35.7" cy="154.3" r="2.1"/><path class="st2" d="M33.6 114.5h4.2"/><path class="st0" d="M45.2 150.8h-19c-.7 0-1.3-.6-1.3-1.3v-30.7c0-.7.6-1.3 1.3-1.3h19c.7 0 1.3.6 1.3 1.3v30.7c0 .7-.6 1.3-1.3 1.3z"/><path class="st1" d="M76.3 142.7v5.1c0 1.7-4.6 5.3-4.6 5.3h34.1s-5-3.7-5-5.3v-5.1h-24.5z"/><path class="st3" d="M101.8 149.6m-27.6 0"/><path class="st1" d="M116.3 161.3h118s1.2 7.7-5.8 7.7h-106.4c-6.5.1-5.8-7.7-5.8-7.7z"/><path class="st0" d="M129 94.3h91.4v59.5h-91.4z"/></svg>