<svg xmlns="http://www.w3.org/2000/svg" width="249.8" height="250" viewBox="0 0 249.8 250"><style type="text/css">.st0{fill:#242424;} .st1{fill:#FFFFFF;} .st2{fill:#C91F42;}</style><circle class="st0" cx="124.9" cy="125" r="124.8"/><path class="st1" d="M203.9 179.6c-39.6 24.5-144 13.2-159.8 1.5-4.2-2.9-9.9-7.7-2.8-14.8 7.1-7.1 36.1-38.7 36.1-38.7s.9-27.5.9-51.6c0-21.7 18.3-33.7 38.5-36.2v-9.6c0-9.3 14.5-9.4 14.5 0v9.5c20.4 2.2 39 14.2 39 36.2v51.6s29.4 31.6 36.6 38.7c7.1 7.1.3 10.4-3 13.4zM109.9 200.8h29.1s4.4 21.3-14.6 21.3l-14.5-21.3z"/><circle class="st2" cx="162.5" cy="52.2" r="19.6"/><path class="st1" d="M161.2 42l-4.2 2.2-.6-2.4 5.2-2.8h2.7v23.6h-3.1v-20.6z"/></svg>