<?xml version="1.0" encoding="utf-8"?>
<!-- Generator: Adobe Illustrator 19.1.0, SVG Export Plug-In . SVG Version: 6.00 Build 0)  -->
<!DOCTYPE svg PUBLIC "-//W3C//DTD SVG 1.1//EN" "http://www.w3.org/Graphics/SVG/1.1/DTD/svg11.dtd">
<svg version="1.1" id="Layer_1" xmlns="http://www.w3.org/2000/svg" xmlns:xlink="http://www.w3.org/1999/xlink" x="0px" y="0px"
	 width="249.8px" height="250px" viewBox="0 0 249.8 250" style="enable-background:new 0 0 249.8 250;" xml:space="preserve">
<style type="text/css">
	.st0{fill:#242424;}
	.st1{fill:#FFFFFF;}
	.st2{fill:#C91F42;}
</style>
<g>
	<g>
		<circle class="st0" cx="124.9" cy="125" r="124.8"/>
	</g>
	<path class="st1" d="M203.9,179.6c-39.6,24.5-144,13.2-159.8,1.5c-4.2-2.9-9.9-7.7-2.8-14.8c7.1-7.1,36.1-38.7,36.1-38.7
		s0.9-27.5,0.9-51.6c0-21.7,18.3-33.7,38.5-36.2v-9.6c0-9.3,14.5-9.4,14.5,0v9.5c20.4,2.2,39,14.2,39,36.2c0,15.5,0,51.6,0,51.6
		s29.4,31.6,36.6,38.7C214,173.3,207.2,176.6,203.9,179.6z"/>
	<path class="st1" d="M109.9,200.8h29.1c0,0,4.4,21.3-14.6,21.3S109.9,200.8,109.9,200.8z"/>
	<circle class="st2" cx="162.5" cy="52.2" r="19.6"/>
	<g>
		<path class="st1" d="M161.2,42L161.2,42l-4.2,2.2l-0.6-2.4l5.2-2.8h2.7v23.6h-3.1V42z"/>
	</g>
</g>
<g>
</g>
<g>
</g>
<g>
</g>
<g>
</g>
<g>
</g>
<g>
</g>
</svg>
