<svg xmlns="http://www.w3.org/2000/svg" id="Layer_1" viewBox="0 0 249.8 250"><style>.st0{fill:#242424;} .st1{fill:#FFFFFF;} .st2{fill:#C91F42;}</style><circle cx="124.9" cy="125" r="124.8" class="st0"/><path d="M204 179.6C164.2 204 60 192.8 44 181c-4-2.8-9.8-7.6-2.7-14.7 7-7 36-38.7 36-38.7s1-27.5 1-51.6c0-21.7 18.3-33.7 38.5-36.2v-9.6c0-9.3 14.5-9.4 14.5 0v9.5c20.4 2.2 39 14.2 39 36.2v51.3S199.7 159 207 166c7 7 0 10.5-3 13.5zm-94 21.2h29s4.4 21.3-14.6 21.3-14.4-21-14.4-21z" class="st1"/><circle cx="162.5" cy="52.2" r="19.6" class="st2"/><path d="M161.2 42l-4.2 2.2-.6-2.4 5.2-2.8h2.7v23.6h-3V42z" class="st1"/></svg>
