<svg xmlns="http://www.w3.org/2000/svg" width="249.8" height="250" viewBox="0 0 249.8 250"><style type="text/css">.st0{fill:#242424;} .st1{fill:#FFFFFF;}</style><circle class="st0" cx="125.1" cy="125" r="125.1"/><path class="st1" d="M179.5 205c-.3 2.7-14.7 13-49.1 13-34.3 0-54.1-11-55-12-.9-1-1.4-3.1-1.4-7 0-2 .4-4.3.8-5.9.3-1.5.7-2.6.7-2.6s3.3-9.2 10.2-12.1c3.7-2 12.4-6.8 19.1-10.5 5-2.7 8.9-4.9 8.9-4.9v-5s-.5-.4-1.3-1.2c-1.7-1.6-4.7-5-6.2-9.5-.6-1.7-.9-3.6-.8-5.6-2.4-1.6-2.7-8.1 0-8.9.3-.1-.3-4.6-.3-5.1-.2-3.7.3-7.2 2.5-10.3 2.4-3.3 5.8-4.8 9.7-5.5 6.5-1.3 15.1-1.6 21.2 1.4 4.4 2.2 5.7 6 5.8 10.6 0 .7-.2 8.9-.2 8.9 1.1.3 1.8 1.9 2 3.7.1 1.4-.1 2.8-.7 4-.3.5-.7 1-1.3 1.3-.1 1.4-.2 2.8-.5 4-1.5 6.6-5.9 10.4-7.7 11.7-.5.4-.8.5-.8.5v5s6.3 2.4 12.8 5.1c4.6 1.9 9.4 4.1 12 5.6 6.4 3.7 11.1 7.4 13.8 10.7 2.2 3 3.7 5.8 4.7 8.2 2.3 6.3 1.4 10.4 1.1 12.4zM70.4 190.3s-.4 1.2-.8 3h-.4c-27.5 0-43.3-8.8-44-9.6-.7-.8-1.1-2.5-1.1-5.6 0-3.1 1.1-6.9 1.1-6.9s2.7-7.3 8.1-9.7c5.1-2.8 22.4-12.3 22.4-12.3v-4s-6.9-5.2-6.7-13c-1.9-1.2-2.1-6.4 0-7.1.2-.1-.2-3.7-.3-4.1-.2-2.9.3-5.8 2-8.2 1.9-2.6 4.7-3.8 7.8-4.4 5.2-1 12-1.3 17 1.1 3.5 1.7 4.6 4.8 4.6 8.5 0 .5-.2 7.1-.1 7.1 1.8.5 2.5 5.6 0 7.2-.3 9-7.2 13-7.2 13v4s14.7 5.6 19.8 8.6c4.4 2.6 7.8 5.1 10 7.4-7.4 4.1-17.2 9.4-21.2 11.6-7.4 3.3-11 13.4-11 13.4zM229.6 182.8c-.3 2.1-11.8 10.4-39.3 10.4-2.3 0-4.6-.1-6.7-.2-1-2.8-2.7-5.9-5.3-9.5-2.9-3.6-8.1-7.6-15.2-11.7-3-1.7-8.4-4.1-13.6-6.3 1.3-1.6 2.9-3.2 4.9-4 5.1-2.8 22.4-12.3 22.4-12.3v-4s-6.9-5.2-6.7-13c-1.9-1.2-2.1-6.4 0-7.1.2-.1-.2-3.7-.3-4.1-.2-2.9.3-5.8 2-8.2 1.9-2.6 4.7-3.8 7.8-4.4 5.2-1 12-1.3 17 1.1 3.5 1.7 4.6 4.8 4.6 8.5 0 .5-.2 7.1-.1 7.1 1.8.5 2.5 5.6 0 7.2-.3 9-7.2 13-7.2 13v4s14.7 5.6 19.8 8.6c5.1 3 8.9 5.9 11 8.5 6.5 8.7 5.1 14.3 4.9 16.4zM143 99l2.9 8.7-10-5.3c-3.5 1.1-7.3 1.8-11.2 1.8-16.8 0-30.4-11.3-30.4-25.3s13.6-25.3 30.4-25.3c16.8 0 30.4 11.3 30.4 25.3-.1 8.2-4.8 15.5-12.1 20.1zM127 48.9c-11.7.7-22.6 3.3-30.3 13-3 3.7-5.1 8.2-6.2 12.8-.2 1.1-1.2 13 .3 12.9-3.9.4-8.2-.4-12.5-2.1l-10.8 5.9 3-10.1s-5.3-4.8-5.8-5.4c-2-2.2-3.7-4.4-5-7-2.5-5.1-3.4-10.9-2.6-16.4 1.2-8.7 6.5-16.6 13.6-21.6 7.2-5 16.1-7.2 24.9-6.6 7.2.5 14.3 2.8 20 7.1 5.8 4.1 10.1 10.5 11.4 17.5zM185.9 78c-1.4 2-3 3.8-4.8 5.2l1.9 8.7-8.3-4.6c-3 1.4-5.8 2.2-7.9 2.4-3 .4-7.3.4-10.3-.6 6.7-12.3.1-32.9-21.9-37 .4-3.1 9-13.5 19.3-14.3 13-1 25.2 3.4 31.6 13.4 5.7 9.1 5 19.7.4 26.8z"/></svg>