<svg xmlns="http://www.w3.org/2000/svg" width="249.8" height="250" viewBox="0 0 249.8 250"><style type="text/css">.st0{fill:#242424;} .st1{fill:#FFFFFF;}</style><circle class="st0" cx="124.9" cy="124.8" r="125.3"/><path class="st1" d="M78.8 84.9h139.6s.3 76.9 0 88.5c-.3 11.6-9.2 18.1-18.2 18.1h-131.8c.7 0 2.1-1.4 2.5-1.7 1.4-1.1 2.9-2.2 4.1-3.5 4.2-4.6 3.3-10.9 3.3-16.6 0-5.3 0-10.5.1-15.8l.2-39.2.1-27.6c.1-.8.1-1.5.1-2.2zm129.7-6.4h-137.1v95.7c0 19.4-26.5 23.1-26.5.8v-107.6s3.6-16.5 15.1-16.5h37.4c16.2 0 14.2 8.5 14.2 16.2h83.8l13.1 11.4z"/><path class="st0" d="M120.1 162.1c-14.2 0-24-26.1.8-31.3-5.5-27.9 34.2-31.9 38.8-12.9 14.1-9 27.8 4.1 23.7 14.2 19.3 1.4 17.6 30 0 30h-63.3z"/></svg>